<?xml version="1.0" encoding="UTF-8" standalone="no"?>
<!DOCTYPE svg PUBLIC "-//W3C//DTD SVG 1.1//EN" "http://www.w3.org/Graphics/SVG/1.1/DTD/svg11.dtd">
<svg width="100%" height="100%" viewBox="0 0 269 668" version="1.1" xmlns="http://www.w3.org/2000/svg"
     xml:space="preserve"
     style="fill-rule:evenodd;clip-rule:evenodd;stroke-linejoin:round;stroke-miterlimit:2;">
    <g transform="matrix(1,0,0,1,-1790,-3)">
        <g transform="matrix(1,0,0,1,-4.54747e-13,3.41565)">
            <g id="Ebene2" transform="matrix(1,0,0,1,1345.83,0)">
                <g transform="matrix(0.192214,0,0,0.668141,320.683,-1033.84)">
                    <rect x="643.871" y="1547.34" width="578.058" height="997.793" style="fill:rgb(48,112,179);"/>
                </g>
                <g transform="matrix(0.632928,0,0,1.04235,183.985,-23.0737)">
                    <rect x="501.224" y="261.979" width="197.185" height="106.597" style="fill:rgb(48,112,179);"/>
                </g>
                <g transform="matrix(0.9261,0,0,0.93398,37.4799,10.4221)">
                    <rect x="507.169" y="-11.159" width="205.586" height="118.965" style="fill:rgb(48,112,179);"/>
                </g>
                <g transform="matrix(1,0,0,0.93398,0,565.978)">
                    <rect x="507.169" y="-11.159" width="205.586" height="118.965" style="fill:rgb(48,112,179);"/>
                </g>
            </g>
        </g>
    </g>
</svg>
