<?xml version="1.0" encoding="UTF-8" standalone="no"?>
<!DOCTYPE svg PUBLIC "-//W3C//DTD SVG 1.1//EN" "http://www.w3.org/Graphics/SVG/1.1/DTD/svg11.dtd">
<svg width="100%" height="100%" viewBox="0 0 334 671" version="1.1" xmlns="http://www.w3.org/2000/svg"
     xml:space="preserve"
     style="fill-rule:evenodd;clip-rule:evenodd;stroke-linejoin:round;stroke-miterlimit:2;">
    <g transform="matrix(1,0,0,1,-2444,0)">
        <g transform="matrix(1,0,0,1,-4.54747e-13,3.41565)">
            <g id="Ebene3" transform="matrix(1,0,0,1,1486.17,-3.41565)">
                <g transform="matrix(1.10252,0,0,0.62578,-174.099,20.4445)">
                    <rect x="1027.07" y="-32.67" width="302.337" height="177.556" style="fill:rgb(48,112,179);"/>
                </g>
                <g transform="matrix(1.10252,0,0,0.62578,-174.099,579.416)">
                    <rect x="1027.07" y="-32.67" width="302.337" height="177.556" style="fill:rgb(48,112,179);"/>
                </g>
                <g transform="matrix(0.52186,0,0,0.62578,597.837,273.86)">
                    <rect x="1027.07" y="-32.67" width="302.337" height="177.556" style="fill:rgb(48,112,179);"/>
                </g>
                <g transform="matrix(0.976181,0,0,1.02292,-5.13107,5.94153)">
                    <rect x="986.907" y="-2.469" width="113.822" height="651.731" style="fill:rgb(48,112,179);"/>
                </g>
                <g transform="matrix(0.976181,0,0,0.501214,217.091,344.663)">
                    <rect x="986.907" y="-2.469" width="113.822" height="651.731" style="fill:rgb(48,112,179);"/>
                </g>
            </g>
        </g>
    </g>
</svg>
