<?xml version="1.0" encoding="UTF-8" standalone="no"?>
<!DOCTYPE svg PUBLIC "-//W3C//DTD SVG 1.1//EN" "http://www.w3.org/Graphics/SVG/1.1/DTD/svg11.dtd">
<svg width="100%" height="100%" viewBox="0 0 335 668" version="1.1" xmlns="http://www.w3.org/2000/svg"
     xml:space="preserve"
     style="fill-rule:evenodd;clip-rule:evenodd;stroke-linejoin:round;stroke-miterlimit:2;">
    <g transform="matrix(1,0,0,1,-777,-836)">
        <g transform="matrix(1,0,0,1,-4.54747e-13,3.41565)">
            <g id="Ebene2" transform="matrix(1.00061,0,0,1.00026,540.497,835.804)">
                <g transform="matrix(0.192214,0,0,0.668141,335.396,-1036.4)">
                    <rect x="643.871" y="1547.34" width="578.058" height="997.793" style="fill:rgb(48,112,179);"/>
                </g>
                <g transform="matrix(1.68944,0,0,1.04235,-609.648,279.835)">
                    <rect x="501.224" y="261.979" width="197.185" height="106.597" style="fill:rgb(48,112,179);"/>
                </g>
                <g transform="matrix(0.563145,-1.58198e-16,-7.91598e-06,2.60519,-45.1216,-296.188)">
                    <rect x="501.224" y="261.979" width="197.185" height="106.597" style="fill:rgb(48,112,179);"/>
                </g>
                <g transform="matrix(1.12629,0,0,1.04235,-216.343,-275.544)">
                    <rect x="501.224" y="261.979" width="197.185" height="106.597" style="fill:rgb(48,112,179);"/>
                </g>
            </g>
        </g>
    </g>
</svg>
