<?xml version="1.0" encoding="UTF-8" standalone="no"?>
<!DOCTYPE svg PUBLIC "-//W3C//DTD SVG 1.1//EN" "http://www.w3.org/Graphics/SVG/1.1/DTD/svg11.dtd">
<svg width="100%" height="100%" viewBox="0 0 667 668" version="1.1" xmlns="http://www.w3.org/2000/svg"
     xml:space="preserve"
     style="fill-rule:evenodd;clip-rule:evenodd;stroke-linejoin:round;stroke-miterlimit:2;">
    <g transform="matrix(1,0,0,1,0,-1666)">
        <g transform="matrix(1,0,0,1,-4.54747e-13,3.41565)">
            <g id="Ebene1" transform="matrix(1,0,0,1,4.26326e-14,1663.25)">
                <g transform="matrix(0.192214,0,0,0.668141,-123.761,-1033.84)">
                    <rect x="643.871" y="1547.34" width="578.058" height="997.793" style="fill:rgb(48,112,179);"/>
                </g>
                <g transform="matrix(-3.08075e-17,-0.192214,0.577399,-9.29605e-17,-837.875,234.872)">
                    <rect x="643.871" y="1547.34" width="578.058" height="997.793" style="fill:rgb(48,112,179);"/>
                </g>
                <g transform="matrix(0.192214,0,0,0.668141,154.016,-1033.84)">
                    <rect x="643.871" y="1547.34" width="578.058" height="997.793" style="fill:rgb(48,112,179);"/>
                </g>
                <g transform="matrix(0.192214,0,0,0.668141,431.794,-1033.84)">
                    <rect x="643.871" y="1547.34" width="578.058" height="997.793" style="fill:rgb(48,112,179);"/>
                </g>
            </g>
        </g>
    </g>
</svg>
