<?xml version="1.0" encoding="UTF-8" standalone="no"?>
<!DOCTYPE svg PUBLIC "-//W3C//DTD SVG 1.1//EN" "http://www.w3.org/Graphics/SVG/1.1/DTD/svg11.dtd">
<svg width="100%" height="100%" viewBox="0 0 333 668" version="1.1" xmlns="http://www.w3.org/2000/svg"
     xml:space="preserve"
     style="fill-rule:evenodd;clip-rule:evenodd;stroke-linejoin:round;stroke-miterlimit:2;">
    <g transform="matrix(1,0,0,1,-2167,-1666)">
        <g transform="matrix(1,0,0,1,-4.54747e-13,3.41565)">
            <g id="Ebene4" transform="matrix(1,0,0,1,839.446,1769.14)">
                <g transform="matrix(0.495014,0,0,1.37763,543.583,-264.282)">
                    <rect x="1584.18" y="114.975" width="224.46" height="483.924" style="fill:rgb(48,112,179);"/>
                </g>
                <g transform="matrix(0.975729,0,0,1.05604,36.3658,-120.769)">
                    <path d="M1550.72,14.09L1411.08,14.09L1411.08,119.305L1493.78,119.305L1550.72,171.913L1550.72,224.52L1493.78,276.686L1411.08,277.127L1411.08,382.342L1550.72,382.342L1664.59,277.127L1664.59,119.305L1550.72,14.09Z"
                          style="fill:rgb(48,112,179);"/>
                </g>
            </g>
        </g>
    </g>
</svg>
