<?xml version="1.0" encoding="UTF-8" standalone="no"?>
<!DOCTYPE svg PUBLIC "-//W3C//DTD SVG 1.1//EN" "http://www.w3.org/Graphics/SVG/1.1/DTD/svg11.dtd">
<svg width="100%" height="100%" viewBox="0 0 334 666" version="1.1" xmlns="http://www.w3.org/2000/svg"
     xml:space="preserve"
     style="fill-rule:evenodd;clip-rule:evenodd;stroke-linejoin:round;stroke-miterlimit:2;">
    <g transform="matrix(1,0,0,1,-1222,-2554)">
        <g transform="matrix(1,0,0,1,-4.54747e-13,3.41565)">
            <g id="Ebene6" transform="matrix(0.721349,0,0,0.914085,121.219,171.003)">
                <g transform="matrix(1.10322,0,0,0.90294,-260.095,334.499)">
                    <rect x="1619.27" y="3184.08" width="418.864" height="134.621" style="fill:rgb(48,112,179);"/>
                </g>
                <g transform="matrix(1.07444,0,0,0.91555,-131.968,219.877)">
                    <rect x="1543.38" y="2603.63" width="430.081" height="132.767" style="fill:rgb(48,112,179);"/>
                </g>
                <g transform="matrix(1.17355,0,8.67362e-19,0.999964,-629.034,32.8467)">
                    <rect x="1838.62" y="2649.19" width="131.254" height="283.176" style="fill:rgb(48,112,179);"/>
                </g>
                <g transform="matrix(1.02127,0,0,0.925736,-33.7614,215.767)">
                    <rect x="1527.58" y="2905.4" width="452.472" height="131.306" style="fill:rgb(48,112,179);"/>
                </g>
                <g transform="matrix(1.1037,0,0,1,123.831,-47.7689)">
                    <rect x="1549.83" y="2973.67" width="139.56" height="399.199" style="fill:rgb(48,112,179);"/>
                </g>
            </g>
        </g>
    </g>
</svg>
