<?xml version="1.0" encoding="UTF-8" standalone="no"?>
<!DOCTYPE svg PUBLIC "-//W3C//DTD SVG 1.1//EN" "http://www.w3.org/Graphics/SVG/1.1/DTD/svg11.dtd">
<svg xmlns:serif="http://www.serif.com/" width="100%" height="100%" viewBox="0 0 668 668" version="1.1"
     xmlns="http://www.w3.org/2000/svg" xml:space="preserve"
     style="fill-rule:evenodd;clip-rule:evenodd;stroke-linejoin:round;stroke-miterlimit:2;">
    <g transform="matrix(1,0,0,1,-668,-3489)">
        <g transform="matrix(1,0,0,1,-4.54747e-13,3.41565)">
            <g id="Ebene10" transform="matrix(1.03323,0,0,1.01872,-859.009,-91.6007)">
                <g id="Ebene9" transform="matrix(0.41508,0,0,0.780036,1166.64,619.18)">
                    <g transform="matrix(1.41295,5.00829e-17,-0.328379,0.902213,1296.89,411.154)">
                        <rect x="916.009" y="3655.18" width="189.451" height="929.887" style="fill:rgb(48,112,179);"/>
                    </g>
                    <g transform="matrix(1.41295,5.00829e-17,0.328379,0.902213,-1743.82,411.154)">
                        <rect x="916.009" y="3655.18" width="189.451" height="929.887" style="fill:rgb(48,112,179);"/>
                    </g>
                </g>
                <g id="Ebene91" serif:id="Ebene9" transform="matrix(0.41508,0,0,0.780036,1435.04,619.18)">
                    <g transform="matrix(1.41295,5.00829e-17,-0.328379,0.902213,1296.89,411.154)">
                        <rect x="916.009" y="3655.18" width="189.451" height="929.887" style="fill:rgb(48,112,179);"/>
                    </g>
                    <g transform="matrix(1.41295,5.00829e-17,0.328379,0.902213,-1743.82,411.154)">
                        <rect x="916.009" y="3655.18" width="189.451" height="929.887" style="fill:rgb(48,112,179);"/>
                    </g>
                </g>
            </g>
        </g>
    </g>
</svg>
