<?xml version="1.0" encoding="UTF-8" standalone="no"?>
<!DOCTYPE svg PUBLIC "-//W3C//DTD SVG 1.1//EN" "http://www.w3.org/Graphics/SVG/1.1/DTD/svg11.dtd">
<svg width="100%" height="100%" viewBox="0 0 501 668" version="1.1" xmlns="http://www.w3.org/2000/svg"
     xml:space="preserve"
     style="fill-rule:evenodd;clip-rule:evenodd;stroke-linejoin:round;stroke-miterlimit:2;">
    <g transform="matrix(1,0,0,1,-1826,-3489)">
        <g transform="matrix(1,0,0,1,-4.54747e-13,3.41565)">
            <g id="Ebene9" transform="matrix(0.733097,0,0,0.556824,1232.43,1241.99)">
                <g transform="matrix(0.800016,0,-0.288132,0.556415,1663.72,1971.81)">
                    <path d="M1118.37,3700.35L928.914,3700.35L916.009,4585.06L1105.46,4585.06L1118.37,3700.35Z"
                          style="fill:rgb(48,112,179);"/>
                </g>
                <g transform="matrix(-0.800016,0,0.288132,0.556415,638.727,1971.81)">
                    <path d="M1118.37,3700.35L928.914,3700.35L916.009,4585.06L1105.46,4585.06L1118.37,3700.35Z"
                          style="fill:rgb(48,112,179);"/>
                </g>
                <g transform="matrix(1.54322,0,0,1.91455,236.977,-4310.59)">
                    <rect x="543.322" y="4599.99" width="98.213" height="382.189" style="fill:rgb(48,112,179);"/>
                </g>
            </g>
        </g>
    </g>
</svg>
